# xmcd
# 
# Track frame offsets:
#     183
#     19043
#     35345
#     52395
#     68610
#     85628
#     101498
#     115343
#     131953
#     146735
#     164845
# 
# Disc length: 2414
# 
# Revision: 7
# Processed by: cddbd v1.5.2PL0 Copyright (c) Steve Scherf et al.
# Submitted via: BonkEnc v1.0
# 
DISCID=9e096c0b
DTITLE=Erasure - Cowboy
DYEAR=1997
DGENRE=Pop
TTITLE0=Rain
TTITLE1=Worlds On Fire
TTITLE2=Reach Out
TTITLE3=In My Arms
TTITLE4=Don`t Say Your Love Is Killing Me
TTITLE5=Precious
TTITLE6=Treasure
TTITLE7=Boy
TTITLE8=How Can I Say
TTITLE9=Save Me Darling
TTITLE10=Love Affair
EXTD=
EXTT0=
EXTT1=
EXTT2=
EXTT3=
EXTT4=
EXTT5=
EXTT6=
EXTT7=
EXTT8=
EXTT9=
EXTT10=
PLAYORDER=
